<?xml version="1.0" encoding="utf-8"?>
<svg version="1.1" xmlns:xlink="http://www.w3.org/1999/xlink" width="27px" height="23px" xmlns="http://www.w3.org/2000/svg">
  <g transform="matrix(1 0 0 1 -1234 -165 )">
    <path d="M 1234 165  L 1261 165  L 1261 188  L 1234 188  L 1234 165  " fill-rule="nonzero" fill="#cccccc" stroke="none" />
    <path d="M 1236 167  L 1259 167  L 1259 186  L 1236 186  L 1236 167  " fill-rule="nonzero" fill="#ffffff" stroke="none" />
    <path d="M 1249.765 171.9  C 1248.799 171.9  1248.04 171.141  1248.04 170.175  C 1248.04 169.209  1248.799 168.45  1249.765 168.45  C 1250.731 168.45  1251.49 169.209  1251.49 170.175  C 1251.49 171.141  1250.731 171.9  1249.765 171.9  " fill-rule="nonzero" fill="#cccccc" stroke="none" />
    <path d="M 1237 186  L 1237 176.1  L 1242.5 171.6  L 1250.2 176.8  L 1254.6 174.3  L 1259 176.8  L 1259 186  L 1237 186  " fill-rule="nonzero" fill="#169bd5" stroke="none" />
  </g>
</svg>